<?xml version="1.0" encoding="UTF-8"?>
<svg version="1.1" xmlns="http://www.w3.org/2000/svg" width="56" height="60">
<path d="M0 0 C2.21411857 -0.02676619 4.42333036 -0.10158405 6.63623047 -0.17749023 C18.53104159 -0.39505564 18.53104159 -0.39505564 23.57763672 3.94555664 C26.62179114 7.18948632 27.74565096 9.22425256 27.71435547 13.66821289 C27.71113281 14.47387695 27.70791016 15.27954102 27.70458984 16.10961914 C27.69202148 17.37225586 27.69202148 17.37225586 27.67919922 18.66040039 C27.6746875 19.50989258 27.67017578 20.35938477 27.66552734 21.23461914 C27.65372796 23.33490948 27.63579228 25.43516369 27.61669922 27.53540039 C26.29669922 27.53540039 24.97669922 27.53540039 23.61669922 27.53540039 C23.61669922 22.58540039 23.61669922 17.63540039 23.61669922 12.53540039 C21.63669922 11.87540039 19.65669922 11.21540039 17.61669922 10.53540039 C16.95669922 9.87540039 16.29669922 9.21540039 15.61669922 8.53540039 C15.61669922 7.21540039 15.61669922 5.89540039 15.61669922 4.53540039 C1.75669922 4.04040039 1.75669922 4.04040039 -12.38330078 3.53540039 C-12.38330078 19.37540039 -12.38330078 35.21540039 -12.38330078 51.53540039 C-7.43330078 51.53540039 -2.48330078 51.53540039 2.61669922 51.53540039 C2.61669922 52.85540039 2.61669922 54.17540039 2.61669922 55.53540039 C0.36729627 55.61659542 -1.8829495 55.67467858 -4.13330078 55.72290039 C-5.38626953 55.75770508 -6.63923828 55.79250977 -7.93017578 55.82836914 C-11.67005075 55.51107206 -12.76564385 55.11455783 -15.38330078 52.53540039 C-15.8777771 50.28990173 -15.8777771 50.28990173 -15.86914062 47.63671875 C-15.87529388 46.64236313 -15.88144714 45.64800751 -15.88778687 44.6235199 C-15.87341583 43.5515889 -15.8590448 42.4796579 -15.84423828 41.37524414 C-15.84332184 40.27443008 -15.8424054 39.17361603 -15.84146118 38.03944397 C-15.83541704 35.71179901 -15.81964687 33.38416211 -15.79492188 31.05664062 C-15.75840925 27.48351563 -15.75390244 23.91142682 -15.75439453 20.33813477 C-15.74456407 18.07966222 -15.73290739 15.82119672 -15.71923828 13.56274414 C-15.71701263 12.48878891 -15.71478699 11.41483368 -15.7124939 10.30833435 C-15.69973419 9.31713089 -15.68697449 8.32592743 -15.67382812 7.3046875 C-15.66620453 6.42993271 -15.65858093 5.55517792 -15.65072632 4.65391541 C-14.80624679 -2.03595639 -5.16198071 0.04138201 0 0 Z M18.61669922 5.53540039 C18.61669922 6.19540039 18.61669922 6.85540039 18.61669922 7.53540039 C19.60669922 7.86540039 20.59669922 8.19540039 21.61669922 8.53540039 C21.28669922 7.54540039 20.95669922 6.55540039 20.61669922 5.53540039 C19.95669922 5.53540039 19.29669922 5.53540039 18.61669922 5.53540039 Z " fill="#FFFFFF" transform="translate(15.38330078125,-0.535400390625)"/>
<path d="M0 0 C0.7940625 0.50789062 1.588125 1.01578125 2.40625 1.5390625 C3.36144531 2.14621094 4.31664063 2.75335938 5.30078125 3.37890625 C6.26371094 4.07113281 7.22664063 4.76335938 8.21875 5.4765625 C9.19457031 6.16621094 10.17039062 6.85585937 11.17578125 7.56640625 C11.91183594 8.21738281 12.64789063 8.86835938 13.40625 9.5390625 C13.40625 10.5290625 13.40625 11.5190625 13.40625 12.5390625 C12.74625 12.5390625 12.08625 12.5390625 11.40625 12.5390625 C9.50016902 15.75088399 9.18358753 18.07788853 9.28125 21.7890625 C9.30832031 23.12710937 9.30832031 23.12710937 9.3359375 24.4921875 C9.35914062 25.16765625 9.38234375 25.843125 9.40625 26.5390625 C7.13551921 27.6744279 5.86341721 27.66798662 3.34375 27.671875 C2.54710938 27.67316406 1.75046875 27.67445312 0.9296875 27.67578125 C0.09695312 27.67191406 -0.73578125 27.66804688 -1.59375 27.6640625 C-2.84285156 27.66986328 -2.84285156 27.66986328 -4.1171875 27.67578125 C-4.91382813 27.67449219 -5.71046875 27.67320313 -6.53125 27.671875 C-7.26214844 27.67074707 -7.99304688 27.66961914 -8.74609375 27.66845703 C-10.59375 27.5390625 -10.59375 27.5390625 -12.59375 26.5390625 C-12.55894531 25.52585937 -12.55894531 25.52585937 -12.5234375 24.4921875 C-12.50539063 23.60015625 -12.48734375 22.708125 -12.46875 21.7890625 C-12.44554687 20.90734375 -12.42234375 20.025625 -12.3984375 19.1171875 C-12.60235498 16.4254767 -13.22823279 14.84001276 -14.59375 12.5390625 C-15.25375 12.5390625 -15.91375 12.5390625 -16.59375 12.5390625 C-16.59375 11.5490625 -16.59375 10.5590625 -16.59375 9.5390625 C-14.40224479 7.60259038 -12.27414123 5.91791338 -9.90625 4.2265625 C-9.28041016 3.74638672 -8.65457031 3.26621094 -8.00976562 2.77148438 C-3.34449121 -0.59435235 -3.34449121 -0.59435235 0 0 Z M-3.59375 3.5390625 C-4.58375 5.0240625 -4.58375 5.0240625 -5.59375 6.5390625 C-4.830625 6.3740625 -4.0675 6.2090625 -3.28125 6.0390625 C-0.59375 5.5390625 -0.59375 5.5390625 2.40625 5.5390625 C1.74625 4.8790625 1.08625 4.2190625 0.40625 3.5390625 C-0.91375 3.5390625 -2.23375 3.5390625 -3.59375 3.5390625 Z M-8.59375 7.5390625 C-8.92375 8.1990625 -9.25375 8.8590625 -9.59375 9.5390625 C-8.60375 9.2090625 -7.61375 8.8790625 -6.59375 8.5390625 C-7.25375 8.2090625 -7.91375 7.8790625 -8.59375 7.5390625 Z M3.40625 7.5390625 C3.73625 8.1990625 4.06625 8.8590625 4.40625 9.5390625 C5.06625 9.2090625 5.72625 8.8790625 6.40625 8.5390625 C5.41625 8.2090625 4.42625 7.8790625 3.40625 7.5390625 Z M-8.10546875 11.76171875 C-10.609088 14.75160526 -10.10691581 17.7937854 -9.83984375 21.52734375 C-9.75863281 22.19121094 -9.67742188 22.85507812 -9.59375 23.5390625 C-8.60375 23.5390625 -7.61375 23.5390625 -6.59375 23.5390625 C-6.59375 20.8990625 -6.59375 18.2590625 -6.59375 15.5390625 C-3.29375 15.5390625 0.00625 15.5390625 3.40625 15.5390625 C3.07625 18.1790625 2.74625 20.8190625 2.40625 23.5390625 C3.39625 23.5390625 4.38625 23.5390625 5.40625 23.5390625 C5.73625 20.2390625 6.06625 16.9390625 6.40625 13.5390625 C5.2925 12.7140625 4.17875 11.8890625 3.03125 11.0390625 C2.40476562 10.575 1.77828125 10.1109375 1.1328125 9.6328125 C-2.46480824 7.35377673 -5.00572236 9.54761418 -8.10546875 11.76171875 Z M-3.59375 18.5390625 C-3.59375 20.1890625 -3.59375 21.8390625 -3.59375 23.5390625 C-2.27375 23.2090625 -0.95375 22.8790625 0.40625 22.5390625 C0.40625 21.2190625 0.40625 19.8990625 0.40625 18.5390625 C-0.91375 18.5390625 -2.23375 18.5390625 -3.59375 18.5390625 Z " fill="#FFFFFF" transform="translate(22.59375,7.4609375)"/>
<path d="M0 0 C0.58273682 0.35868164 1.16547363 0.71736328 1.76586914 1.08691406 C2.1411819 6.59150122 2.1411819 6.59150122 0.20336914 9.14941406 C-0.27100586 9.78878906 -0.74538086 10.42816406 -1.23413086 11.08691406 C-0.93442383 12.25287109 -0.93442383 12.25287109 -0.62866211 13.44238281 C-0.23413086 16.08691406 -0.23413086 16.08691406 -1.49194336 18.29003906 C-2.10811523 18.96550781 -2.72428711 19.64097656 -3.35913086 20.33691406 C-4.26018555 21.36558594 -4.26018555 21.36558594 -5.17944336 22.41503906 C-8.04161765 24.74395654 -10.61199372 25.08691406 -14.23413086 25.08691406 C-15.64804249 26.48615856 -17.01591395 27.9321719 -18.35913086 29.39941406 C-23.06626909 34.21250074 -27.00655703 36.99632319 -33.96850586 37.14550781 C-35.08999023 37.11650391 -35.08999023 37.11650391 -36.23413086 37.08691406 C-35.90993028 35.58015329 -35.54755577 34.08160951 -35.17163086 32.58691406 C-34.9744043 31.75160156 -34.77717773 30.91628906 -34.57397461 30.05566406 C-32.59555277 25.67198886 -29.51256728 22.56241938 -26.23413086 19.08691406 C-25.59354736 18.40242188 -24.95296387 17.71792969 -24.29296875 17.01269531 C-22.31694417 14.93064975 -20.31170624 12.88113711 -18.29663086 10.83691406 C-17.63211914 10.14339844 -16.96760742 9.44988281 -16.28295898 8.73535156 C-5.45478055 -2.22936064 -5.45478055 -2.22936064 0 0 Z M-4.23413086 3.08691406 C-3.90413086 4.07691406 -3.57413086 5.06691406 -3.23413086 6.08691406 C-2.57413086 6.08691406 -1.91413086 6.08691406 -1.23413086 6.08691406 C-0.90413086 5.09691406 -0.57413086 4.10691406 -0.23413086 3.08691406 C-1.55413086 3.08691406 -2.87413086 3.08691406 -4.23413086 3.08691406 Z M-8.23413086 6.08691406 C-9.28213867 7.15232422 -9.28213867 7.15232422 -10.35131836 8.23925781 C-11.71643555 9.61791016 -11.71643555 9.61791016 -13.10913086 11.02441406 C-14.01405273 11.9409375 -14.91897461 12.85746094 -15.85131836 13.80175781 C-18.23413086 16.08691406 -18.23413086 16.08691406 -20.23413086 17.08691406 C-20.44944494 19.18723085 -20.44944494 19.18723085 -18.85913086 20.71191406 C-17.33444765 22.30222814 -17.33444765 22.30222814 -15.23413086 22.08691406 C-13.59944186 20.43242722 -13.59944186 20.43242722 -11.92163086 18.33691406 C-9.24650851 15.16930057 -6.494874 12.65598442 -3.23413086 10.08691406 C-3.23413086 9.42691406 -3.23413086 8.76691406 -3.23413086 8.08691406 C-5.70913086 7.09691406 -5.70913086 7.09691406 -8.23413086 6.08691406 Z M-5.23413086 14.08691406 C-4.90413086 14.74691406 -4.57413086 15.40691406 -4.23413086 16.08691406 C-3.90413086 15.42691406 -3.57413086 14.76691406 -3.23413086 14.08691406 C-3.89413086 14.08691406 -4.55413086 14.08691406 -5.23413086 14.08691406 Z M-23.23413086 20.08691406 C-24.58800022 21.73694234 -25.92091228 23.40435276 -27.23413086 25.08691406 C-28.22413086 25.58191406 -28.22413086 25.58191406 -29.23413086 26.08691406 C-29.44944494 28.18723085 -29.44944494 28.18723085 -27.85913086 29.71191406 C-26.33444765 31.30222814 -26.33444765 31.30222814 -24.23413086 31.08691406 C-22.8802615 29.43688578 -21.54734943 27.76947536 -20.23413086 26.08691406 C-19.57413086 25.75691406 -18.91413086 25.42691406 -18.23413086 25.08691406 C-18.01881678 22.98659727 -18.01881678 22.98659727 -19.60913086 21.46191406 C-21.13381407 19.87159998 -21.13381407 19.87159998 -23.23413086 20.08691406 Z M-31.23413086 30.08691406 C-31.23413086 31.07691406 -31.23413086 32.06691406 -31.23413086 33.08691406 C-30.24413086 33.08691406 -29.25413086 33.08691406 -28.23413086 33.08691406 C-28.56413086 32.09691406 -28.89413086 31.10691406 -29.23413086 30.08691406 C-29.89413086 30.08691406 -30.55413086 30.08691406 -31.23413086 30.08691406 Z " fill="#FFFFFF" transform="translate(54.234130859375,22.9130859375)"/>
<path d="M0 0 C0.68964844 -0.00386719 1.37929687 -0.00773437 2.08984375 -0.01171875 C7.24666707 -0.00166646 7.24666707 -0.00166646 9.5 1.125 C9.5 1.785 9.5 2.445 9.5 3.125 C6.46570323 4.64214839 3.32398333 4.26863916 0 4.25 C-0.68964844 4.25386719 -1.37929687 4.25773437 -2.08984375 4.26171875 C-7.24666707 4.25166646 -7.24666707 4.25166646 -9.5 3.125 C-9.5 2.465 -9.5 1.805 -9.5 1.125 C-6.46570323 -0.39214839 -3.32398333 -0.01863916 0 0 Z " fill="#FFFFFF" transform="translate(14.5,42.875)"/>
<path d="M0 0 C1.79158489 -0.02696365 3.58328473 -0.04637917 5.375 -0.0625 C6.37273438 -0.07410156 7.37046875 -0.08570313 8.3984375 -0.09765625 C11 0 11 0 13 1 C13 1.66 13 2.32 13 3 C10.35541621 4.32229189 8.32238699 4.09677194 5.375 4.0625 C4.37210938 4.05347656 3.36921875 4.04445313 2.3359375 4.03515625 C1.56507812 4.02355469 0.79421875 4.01195312 0 4 C0 2.68 0 1.36 0 0 Z " fill="#FFFFFF" transform="translate(17,37)"/>
<path d="M0 0 C0 1.32 0 2.64 0 4 C-5.75 4.125 -5.75 4.125 -8 3 C-8 2.34 -8 1.68 -8 1 C-5.29120665 -0.35439668 -2.99066732 -0.06501451 0 0 Z " fill="#FFFFFF" transform="translate(13,37)"/>
</svg>
