<?xml version="1.0" encoding="UTF-8"?>
<svg version="1.1" xmlns="http://www.w3.org/2000/svg" width="52" height="44">
<path d="M0 0 C4.62 0 9.24 0 14 0 C14 1.98 14 3.96 14 6 C13.34 6 12.68 6 12 6 C12 7.98 12 9.96 12 12 C13.7015625 12.4640625 13.7015625 12.4640625 15.4375 12.9375 C19 14 19 14 20 15 C20.04092937 17.33297433 20.04241723 19.66705225 20 22 C19.34 22 18.68 22 18 22 C18 29.26 18 36.52 18 44 C12.98198272 44.09207371 7.96692096 44.17163196 2.94873047 44.21972656 C1.24355106 44.23978369 -0.46156006 44.26703657 -2.16650391 44.30175781 C-4.62419524 44.35053861 -7.08097366 44.37302719 -9.5390625 44.390625 C-10.29555084 44.41127014 -11.05203918 44.43191528 -11.83145142 44.45318604 C-17.02015395 44.45536241 -19.85855765 43.37598427 -24 40 C-30.19329751 33.51864214 -32.36002985 28.04396653 -32.26367188 19.27539062 C-32.23853516 18.38013672 -32.21339844 17.48488281 -32.1875 16.5625 C-32.17396484 15.64017578 -32.16042969 14.71785156 -32.14648438 13.76757812 C-32.11140953 11.51109617 -32.06226387 9.25586774 -32 7 C-29.91780951 6.18457569 -27.83420239 5.37276811 -25.75 4.5625 C-24.58984375 4.11003906 -23.4296875 3.65757812 -22.234375 3.19140625 C-15.63843005 0.76174054 -15.63843005 0.76174054 -13.10546875 1.70703125 C-12.47253906 2.07183594 -11.83960937 2.43664062 -11.1875 2.8125 C-7.50182093 4.81092636 -4.06132709 5.98466823 0 7 C0 4.69 0 2.38 0 0 Z M2 2 C2 2.33 2 2.66 2 3 C4.97 3 7.94 3 11 3 C11 2.67 11 2.34 11 2 C8.03 2 5.06 2 2 2 Z M-22 5.875 C-24.66507647 7.36369506 -27.00484233 8.37155174 -30 9 C-30.4654094 21.11788167 -29.99825418 29.16639245 -21.9140625 38.46875 C-19.56114284 40.35108573 -17.99758018 40.81235805 -15 41 C-9.3938627 38.76220715 -6.48088041 34.24801624 -4 29 C-2.77347679 24.93874479 -2.88919868 20.95593009 -2.9375 16.75 C-2.94201172 16.00492188 -2.94652344 15.25984375 -2.95117188 14.4921875 C-2.96290754 12.6614236 -2.9808415 10.83070127 -3 9 C-4.74906531 8.35163958 -6.49929219 7.70641216 -8.25 7.0625 C-9.22453125 6.70285156 -10.1990625 6.34320313 -11.203125 5.97265625 C-12.12609375 5.65167969 -13.0490625 5.33070312 -14 5 C-15.04414063 4.63068359 -15.04414063 4.63068359 -16.109375 4.25390625 C-18.63645779 3.9145253 -19.80235228 4.63023859 -22 5.875 Z M4 6 C4 6.99 4 7.98 4 9 C6.475 9.99 6.475 9.99 9 11 C9 9.35 9 7.7 9 6 C7.35 6 5.7 6 4 6 Z M2 15 C2.66 17.64 3.32 20.28 4 23 C2.35 23.33 0.7 23.66 -1 24 C-1 24.99 -1 25.98 -1 27 C-0.01 27 0.98 27 2 27 C2 28.98 2 30.96 2 33 C2.33 33 2.66 33 3 33 C3 30.03 3 27.06 3 24 C6.63 24 10.26 24 14 24 C14 26.97 14 29.94 14 33 C14.33 33 14.66 33 15 33 C15 28.71 15 24.42 15 20 C13.22625 19.175 11.4525 18.35 9.625 17.5 C8.62726562 17.0359375 7.62953125 16.571875 6.6015625 16.09375 C4.16307374 14.8708127 4.16307374 14.8708127 2 15 Z M14 16 C15.98 16.99 15.98 16.99 18 18 C17.67 17.34 17.34 16.68 17 16 C16.01 16 15.02 16 14 16 Z M0 18 C1 21 1 21 1 21 Z M-2 30 C-2.66 31.65 -3.32 33.3 -4 35 C-2.68 35 -1.36 35 0 35 C0 33.35 0 31.7 0 30 C-0.66 30 -1.32 30 -2 30 Z M6 31 C6 31.66 6 32.32 6 33 C6.66 33 7.32 33 8 33 C8 32.34 8 31.68 8 31 C7.34 31 6.68 31 6 31 Z M10 31 C10 31.66 10 32.32 10 33 C10.66 33 11.32 33 12 33 C12 32.34 12 31.68 12 31 C11.34 31 10.68 31 10 31 Z M-5 35 C-5.66 35.66 -6.32 36.32 -7 37 C-7 38.32 -7 39.64 -7 41 C-4.69 41 -2.38 41 0 41 C0 39.68 0 38.36 0 37 C-1.32 37 -2.64 37 -4 37 C-4.33 36.34 -4.66 35.68 -5 35 Z M2 35 C2 35.99 2 36.98 2 38 C6.29 38 10.58 38 15 38 C14.67 37.01 14.34 36.02 14 35 C10.04 35 6.08 35 2 35 Z M2 41 C2 41.33 2 41.66 2 42 C6.29 42 10.58 42 15 42 C15 41.67 15 41.34 15 41 C10.71 41 6.42 41 2 41 Z " fill="#FE5525" transform="translate(32,0)"/>
<path d="M0 0 C0.79360215 16.9301791 0.79360215 16.9301791 -4 23 C-6.51099877 25.63976794 -7.80715501 26.87765692 -11.4375 27.25 C-15.48659694 25.27483076 -17.67492588 21.78192436 -20 18 C-21.2062252 14.38132441 -21.10816918 11.07493749 -21.0625 7.3125 C-21.05798828 6.61060547 -21.05347656 5.90871094 -21.04882812 5.18554688 C-21.03706927 3.45699462 -21.01913454 1.72848635 -21 0 C-12.35898094 -4.38639965 -8.64875617 -3.90041945 0 0 Z M-15.6875 1 C-17.3271875 1.99 -17.3271875 1.99 -19 3 C-18.63995159 10.67275576 -18.25893673 16.60752006 -13.5625 22.9375 C-12.04789283 24.18157928 -12.04789283 24.18157928 -10.0625 24 C-6.22693652 22.14033286 -4.47143025 19.03714656 -2.75 15.25 C-1.79497736 11.11156854 -1.8309758 7.22560499 -2 3 C-3.093125 2.34 -4.18625 1.68 -5.3125 1 C-5.92738281 0.62875 -6.54226562 0.2575 -7.17578125 -0.125 C-10.61196675 -1.77319176 -12.64826489 -0.83500988 -15.6875 1 Z " fill="#FE5525" transform="translate(26,11)"/>
<path d="M0 0 C0 0.99 0 1.98 0 3 C-0.99 3.495 -0.99 3.495 -2 4 C-2.14975239 11.05651252 -2.14975239 11.05651252 -1 18 C-4 17 -4 17 -5.1796875 15.296875 C-6.1819244 12.49061169 -6.19578721 10.22306264 -6.125 7.25 C-6.09792969 5.77273437 -6.09792969 5.77273437 -6.0703125 4.265625 C-6.04710937 3.51796875 -6.02390625 2.7703125 -6 2 C-2.25 0 -2.25 0 0 0 Z " fill="#FE5525" transform="translate(15,12)"/>
</svg>
