<?xml version="1.0" encoding="UTF-8"?>
<svg version="1.1" xmlns="http://www.w3.org/2000/svg" width="52" height="52">
<path d="M0 0 C2.97 0 5.94 0 9 0 C10.81359313 3.88134031 11.2373701 6.90693517 11.1953125 11.17578125 C11.18564453 12.91118164 11.18564453 12.91118164 11.17578125 14.68164062 C11.15902344 15.87982422 11.14226563 17.07800781 11.125 18.3125 C11.11597656 19.53001953 11.10695313 20.74753906 11.09765625 22.00195312 C11.07413037 25.00150274 11.04125653 28.00065044 11 31 C10.34 31 9.68 31 9 31 C9 31.66 9 32.32 9 33 C9.99 33.33 10.98 33.66 12 34 C12.33 22.78 12.66 11.56 13 0 C24.55 0 36.1 0 48 0 C48 16.17 48 32.34 48 49 C36.45 49 24.9 49 13 49 C12.67 47.68 12.34 46.36 12 45 C10.02 47.31 8.04 49.62 6 52 C1.40482216 50.85120554 0.59093275 49.79386581 -2 46 C-2 45.34 -2 44.68 -2 44 C-2.66 44 -3.32 44 -4 44 C-4 43.01 -4 42.02 -4 41 C-3.01 41 -2.02 41 -1 41 C-1 40.34 -1 39.68 -1 39 C-1.99 38.67 -2.98 38.34 -4 38 C-3.34 36.35 -2.68 34.7 -2 33 C-1.34 33 -0.68 33 0 33 C0 32.34 0 31.68 0 31 C-0.66 31 -1.32 31 -2 31 C-2 28.03 -2 25.06 -2 22 C-2.66 22 -3.32 22 -4 22 C-4 17.05 -4 12.1 -4 7 C-3.34 7 -2.68 7 -2 7 C-1.34 4.69 -0.68 2.38 0 0 Z M2 2 C2 2.99 2 3.98 2 5 C3.98 5 5.96 5 8 5 C7.67 4.01 7.34 3.02 7 2 C5.35 2 3.7 2 2 2 Z M16 2 C16 8.27 16 14.54 16 21 C19.465 20.505 19.465 20.505 23 20 C23 20.99 23 21.98 23 23 C20.69 23 18.38 23 16 23 C16 23.33 16 23.66 16 24 C18.97 24 21.94 24 25 24 C25 24.66 25 25.32 25 26 C22.03 26 19.06 26 16 26 C16.33 26.66 16.66 27.32 17 28 C20.63 27.67 24.26 27.34 28 27 C28 27.99 28 28.98 28 30 C24.04 30 20.08 30 16 30 C16 30.33 16 30.66 16 31 C19.63 31 23.26 31 27 31 C26.67 31.66 26.34 32.32 26 33 C22.7 33 19.4 33 16 33 C16 37.29 16 41.58 16 46 C25.9 46 35.8 46 46 46 C46 31.48 46 16.96 46 2 C36.1 2 26.2 2 16 2 Z M1 8 C1 9.32 1 10.64 1 12 C3.64 12 6.28 12 9 12 C9 10.68 9 9.36 9 8 C6.36 8 3.72 8 1 8 Z M1 15 C1 15.66 1 16.32 1 17 C2.32 17 3.64 17 5 17 C5 17.99 5 18.98 5 20 C3.68 20.33 2.36 20.66 1 21 C1.99 21 2.98 21 4 21 C4 21.99 4 22.98 4 24 C3.01 24 2.02 24 1 24 C1 25.32 1 26.64 1 28 C3.64 28 6.28 28 9 28 C9 23.71 9 19.42 9 15 C6.36 15 3.72 15 1 15 Z M2 31 C2 31.33 2 31.66 2 32 C3.65 32 5.3 32 7 32 C7 31.67 7 31.34 7 31 C5.35 31 3.7 31 2 31 Z M0 35 C-0.33 35.66 -0.66 36.32 -1 37 C0.97420135 39.52259061 1.96745642 39.9929808 5.1875 40.6875 C6.115625 40.790625 7.04375 40.89375 8 41 C8 39.68 8 38.36 8 37 C8.66 36.67 9.32 36.34 10 36 C8.99163938 34.76732652 8.99163938 34.76732652 6.93359375 34.90234375 C5.69802734 34.91974609 5.69802734 34.91974609 4.4375 34.9375 C3.19806641 34.95103516 3.19806641 34.95103516 1.93359375 34.96484375 C0.97646484 34.98224609 0.97646484 34.98224609 0 35 Z M12 38 C11.34 38.66 10.68 39.32 10 40 C10.99 40.33 11.98 40.66 13 41 C12.67 40.01 12.34 39.02 12 38 Z M1 41 C0.67 41.99 0.34 42.98 0 44 C0.99 44.495 0.99 44.495 2 45 C1.67 43.68 1.34 42.36 1 41 Z M8 42 C9 44 9 44 9 44 Z M7 44 C7 47 7 47 7 47 Z " fill="#FE5525" transform="translate(4,0)"/>
<path d="M0 0 C2.5820955 1.29104775 4.16811705 2.7755707 6 5 C6 5.99 6 6.98 6 8 C5.34 8 4.68 8 4 8 C4 8.99 4 9.98 4 11 C3.01 11 2.02 11 1 11 C0.67 8.69 0.34 6.38 0 4 C-1.35618499 5.12534105 -1.35618499 5.12534105 -1.0625 8.0625 C-1.041875 9.031875 -1.02125 10.00125 -1 11 C-1.99 11 -2.98 11 -4 11 C-4.33 10.01 -4.66 9.02 -5 8 C-5.66 8 -6.32 8 -7 8 C-6.43241127 4.02687888 -4.46005933 0 0 0 Z " fill="#FE5525" transform="translate(35,5)"/>
<path d="M0 0 C5.48780488 0.48780488 5.48780488 0.48780488 7.875 2.875 C9 5 9 5 9 8 C5.04 8 1.08 8 -3 8 C-3 7.01 -3 6.02 -3 5 C-1.68 4.67 -0.36 4.34 1 4 C0.01 4 -0.98 4 -2 4 C-1.34 2.68 -0.68 1.36 0 0 Z " fill="#FE5525" transform="translate(40,36)"/>
<path d="M0 0 C4.95 0 9.9 0 15 0 C15 0.99 15 1.98 15 3 C10.05 3 5.1 3 0 3 C0 2.01 0 1.02 0 0 Z " fill="#FE5525" transform="translate(34,27)"/>
<path d="M0 0 C3.96 0 7.92 0 12 0 C12 0.99 12 1.98 12 3 C8.04 3 4.08 3 0 3 C0 2.01 0 1.02 0 0 Z " fill="#FE5525" transform="translate(37,20)"/>
<path d="M0 0 C2.31 0 4.62 0 7 0 C7 0.99 7 1.98 7 3 C4.36 3 1.72 3 -1 3 C-0.67 2.01 -0.34 1.02 0 0 Z " fill="#FE5525" transform="translate(29,20)"/>
<path d="M0 0 C2.64 0 5.28 0 8 0 C7.67 0.99 7.34 1.98 7 3 C5.02 3 3.04 3 1 3 C0.67 2.01 0.34 1.02 0 0 Z " fill="#FE5525" transform="translate(41,31)"/>
<path d="M0 0 C2.64 0 5.28 0 8 0 C7.67 0.99 7.34 1.98 7 3 C5.02 3 3.04 3 1 3 C0.67 2.01 0.34 1.02 0 0 Z " fill="#FE5525" transform="translate(32,31)"/>
<path d="M0 0 C2.97 0 5.94 0 9 0 C9 0.66 9 1.32 9 2 C2.25 3.125 2.25 3.125 0 2 C0 1.34 0 0.68 0 0 Z " fill="#FE5525" transform="translate(30,24)"/>
<path d="M0 0 C2.97 0 5.94 0 9 0 C9 0.66 9 1.32 9 2 C6.03 2 3.06 2 0 2 C0 1.34 0 0.68 0 0 Z " fill="#FE5525" transform="translate(40,24)"/>
</svg>
