<?xml version="1.0" encoding="UTF-8"?>
<svg version="1.1" xmlns="http://www.w3.org/2000/svg" width="52" height="52">
<path d="M0 0 C4.29 0 8.58 0 13 0 C13.33 1.32 13.66 2.64 14 4 C14.515625 3.34 15.03125 2.68 15.5625 2 C18 0 18 0 21.3125 -0.6875 C25.80844201 0.15072648 27.00652464 1.56209836 29.98046875 4.8515625 C32.35868358 7.38157827 34.8990852 9.58517883 37.5625 11.8125 C38.45066406 12.56144531 39.33882812 13.31039063 40.25390625 14.08203125 C43.1256983 16.08779213 45.67680124 16.96589283 49 18 C49.05783842 22.29161047 49.0935412 26.58312145 49.125 30.875 C49.14175781 32.09832031 49.15851562 33.32164063 49.17578125 34.58203125 C49.18544922 36.33193359 49.18544922 36.33193359 49.1953125 38.1171875 C49.21102295 39.73536377 49.21102295 39.73536377 49.22705078 41.38623047 C49 44 49 44 47 46 C44.875 46.625 44.875 46.625 43 47 C43 48.65 43 50.3 43 52 C28.81 52 14.62 52 0 52 C0 47 0 47 1 46 C1.15740605 44.29436222 1.25093392 42.58272756 1.31640625 40.87109375 C1.35830078 39.83662109 1.40019531 38.80214844 1.44335938 37.73632812 C1.50233398 36.1034082 1.50233398 36.1034082 1.5625 34.4375 C1.60568359 33.34501953 1.64886719 32.25253906 1.69335938 31.12695312 C1.79982068 28.41810436 1.90183516 25.70916008 2 23 C0.35 23 -1.3 23 -3 23 C-2.37017995 18.33933162 -2.37017995 18.33933162 -0.5 16.625 C1.44235584 14.52078117 1.48301599 13.13437934 1.6875 10.3125 C1.75324219 9.50425781 1.81898438 8.69601562 1.88671875 7.86328125 C1.92410156 7.24839844 1.96148438 6.63351563 2 6 C1.34 6 0.68 6 0 6 C0 4.02 0 2.04 0 0 Z M3 2 C3.33 2.66 3.66 3.32 4 4 C4.22950319 6.204364 4.41075933 8.41392173 4.5625 10.625 C4.64628906 11.81351563 4.73007813 13.00203125 4.81640625 14.2265625 C4.87699219 15.14179688 4.93757812 16.05703125 5 17 C3.02 17.99 3.02 17.99 1 19 C2.485 19.99 2.485 19.99 4 21 C4.35644531 23.67382812 4.35644531 23.67382812 4.328125 27.03125 C4.32296875 28.23394531 4.3178125 29.43664062 4.3125 30.67578125 C4.291875 31.93777344 4.27125 33.19976562 4.25 34.5 C4.24484375 35.76199219 4.2396875 37.02398437 4.234375 38.32421875 C4.15405194 47.69189613 4.15405194 47.69189613 3 50 C15.21 50 27.42 50 40 50 C39.01 49.505 39.01 49.505 38 49 C38 48.01 38 47.02 38 46 C37.28344238 45.98018066 36.56688477 45.96036133 35.82861328 45.93994141 C32.5936937 45.84490481 29.35943906 45.73513981 26.125 45.625 C24.99707031 45.5940625 23.86914062 45.563125 22.70703125 45.53125 C21.09248047 45.47324219 21.09248047 45.47324219 19.4453125 45.4140625 C18.45031738 45.3826416 17.45532227 45.3512207 16.43017578 45.31884766 C14 45 14 45 12 43 C11.75708008 40.58569336 11.75708008 40.58569336 11.76953125 37.58984375 C11.77146484 36.51798828 11.77339844 35.44613281 11.77539062 34.34179688 C11.78763672 33.21837891 11.79988281 32.09496094 11.8125 30.9375 C11.81314453 29.81021484 11.81378906 28.68292969 11.81445312 27.52148438 C11.85986683 19.14013317 11.85986683 19.14013317 13 18 C14.92478813 17.84193469 16.8549921 17.748865 18.78515625 17.68359375 C20.53989258 17.62075195 20.53989258 17.62075195 22.33007812 17.55664062 C23.56177734 17.51732422 24.79347656 17.47800781 26.0625 17.4375 C27.29806641 17.39431641 28.53363281 17.35113281 29.80664062 17.30664062 C32.87097335 17.20015802 35.93539073 17.09814576 39 17 C35.70807804 13.6786333 32.37708811 10.41846138 28.9375 7.25 C28.10089844 6.47140625 27.26429687 5.6928125 26.40234375 4.890625 C23.51470925 2.52617031 23.51470925 2.52617031 20 2 C17.60457976 3.60497781 17.60457976 3.60497781 15.375 5.875 C11.1025641 9.94871795 11.1025641 9.94871795 9 11 C9 8.36 9 5.72 9 3 C9.66 2.67 10.32 2.34 11 2 C8.36 2 5.72 2 3 2 Z M14 20 C14 20.33 14 20.66 14 21 C24.89 21 35.78 21 47 21 C47 20.67 47 20.34 47 20 C36.11 20 25.22 20 14 20 Z M14 24 C14 24.66 14 25.32 14 26 C24.89 26 35.78 26 47 26 C47 25.34 47 24.68 47 24 C36.11 24 25.22 24 14 24 Z M14 29 C14 33.62 14 38.24 14 43 C18.53904366 43.02291161 23.07788802 43.04283781 27.61694336 43.05493164 C29.16219766 43.0599714 30.70744716 43.0668032 32.25268555 43.07543945 C34.46925029 43.08752076 36.68575218 43.09323173 38.90234375 43.09765625 C39.94454323 43.10539818 39.94454323 43.10539818 41.00779724 43.11329651 C42.6722933 43.11349277 44.33665499 43.06189129 46 43 C46.33 42.67 46.66 42.34 47 42 C47 37.71 47 33.42 47 29 C36.11 29 25.22 29 14 29 Z " fill="#FE5525" transform="translate(3,0)"/>
<path d="M0 0 C1.093125 0.00257812 2.18625 0.00515625 3.3125 0.0078125 C4.405625 0.00523438 5.49875 0.00265625 6.625 0 C9.3125 0.1328125 9.3125 0.1328125 10.3125 1.1328125 C10.45365161 3.80340101 10.35497107 6.45713488 10.3125 9.1328125 C5.6925 9.1328125 1.0725 9.1328125 -3.6875 9.1328125 C-3.78515625 2.98046875 -3.78515625 2.98046875 -3.6875 1.1328125 C-2.6875 0.1328125 -2.6875 0.1328125 0 0 Z M-0.6875 3.1328125 C-0.6875 4.1228125 -0.6875 5.1128125 -0.6875 6.1328125 C1.9525 6.1328125 4.5925 6.1328125 7.3125 6.1328125 C7.3125 5.1428125 7.3125 4.1528125 7.3125 3.1328125 C4.6725 3.1328125 2.0325 3.1328125 -0.6875 3.1328125 Z " fill="#FE5525" transform="translate(38.6875,32.8671875)"/>
<path d="M0 0 C4.95 0 9.9 0 15 0 C15 0.99 15 1.98 15 3 C10.05 3 5.1 3 0 3 C0 2.01 0 1.02 0 0 Z " fill="#FE5525" transform="translate(18,34)"/>
<path d="M0 0 C4.95 0 9.9 0 15 0 C15 0.66 15 1.32 15 2 C9.96266834 3.5111995 5.11828973 2.64599773 0 2 C0 1.34 0 0.68 0 0 Z " fill="#FE5525" transform="translate(18,31)"/>
</svg>
