<?xml version="1.0" encoding="UTF-8"?>
<svg version="1.1" xmlns="http://www.w3.org/2000/svg" width="52" height="52">
<path d="M0 0 C14.52 0 29.04 0 44 0 C44 14.52 44 29.04 44 44 C29.48 44 14.96 44 0 44 C0 29.48 0 14.96 0 0 Z M3 2 C3 7.94 3 13.88 3 20 C7.29 20 11.58 20 16 20 C16 18.68 16 17.36 16 16 C15.34 16 14.68 16 14 16 C14.33 15.34 14.66 14.68 15 14 C17.5625 13.375 17.5625 13.375 20 13 C20 13.99 20 14.98 20 16 C19.01 16.495 19.01 16.495 18 17 C18 18.65 18 20.3 18 22 C13.05 22.33 8.1 22.66 3 23 C3 24.32 3 25.64 3 27 C6.3 27 9.6 27 13 27 C11.64932362 34.3673257 11.64932362 34.3673257 8.5625 37.375 C7.716875 37.91125 6.87125 38.4475 6 39 C5.01 39.66 4.02 40.32 3 41 C8.94 41 14.88 41 21 41 C21.33 36.05 21.66 31.1 22 26 C24.97 25.34 27.94 24.68 31 24 C31 25.98 31 27.96 31 30 C30.01 30 29.02 30 28 30 C28 29.34 28 28.68 28 28 C26.68 28 25.36 28 24 28 C24 32.29 24 36.58 24 41 C29.94 41 35.88 41 42 41 C42 36.71 42 32.42 42 28 C37.39467611 28.69302969 37.39467611 28.69302969 35 30 C35 28.02 35 26.04 35 24 C37.31 24.33 39.62 24.66 42 25 C42 21.04 42 17.08 42 13 C40.35 13.33 38.7 13.66 37 14 C37 12.02 37 10.04 37 8 C37.66 8 38.32 8 39 8 C39 8.66 39 9.32 39 10 C39.99 10 40.98 10 42 10 C42 7.36 42 4.72 42 2 C37.38 2 32.76 2 28 2 C28 4.64 28 7.28 28 10 C28.66 10 29.32 10 30 10 C30 9.34 30 8.68 30 8 C30.66 8.33 31.32 8.66 32 9 C32 10.32 32 11.64 32 13 C29.03 12.505 29.03 12.505 26 12 C25.505 7.05 25.505 7.05 25 2 C22.69 2 20.38 2 18 2 C18.65585189 5.60992379 18.65585189 5.60992379 20 9 C18.02 9 16.04 9 14 9 C14.66 8.01 15.32 7.02 16 6 C16 4.68 16 3.36 16 2 C11.71 2 7.42 2 3 2 Z M3 30 C3 32.31 3 34.62 3 37 C6.26189156 36.4376049 7.91134848 35.5859495 10 33 C10.33 32.01 10.66 31.02 11 30 C8.36 30 5.72 30 3 30 Z " fill="#FE5525" transform="translate(8,0)"/>
<path d="M0 0 C2.0625 0.4375 2.0625 0.4375 4 1 C4.33 2.32 4.66 3.64 5 5 C4.34 5 3.68 5 3 5 C3 16.88 3 28.76 3 41 C3.66 41 4.32 41 5 41 C4.6875 42.875 4.6875 42.875 4 45 C3.01 45.66 2.02 46.32 1 47 C-0.5 45.6875 -0.5 45.6875 -2 44 C-2 43.01 -2 42.02 -2 41 C-1.34 41 -0.68 41 0 41 C0 29.12 0 17.24 0 5 C-0.66 5 -1.32 5 -2 5 C-1.125 1.125 -1.125 1.125 0 0 Z " fill="#FE5525" transform="translate(2,0)"/>
<path d="M0 0 C0.99 0 1.98 0 3 0 C3 0.66 3 1.32 3 2 C14.88 2 26.76 2 39 2 C39 1.34 39 0.68 39 0 C40.32 0.33 41.64 0.66 43 1 C43.625 2.875 43.625 2.875 44 5 C43.34 5.66 42.68 6.32 42 7 C41.01 6.67 40.02 6.34 39 6 C36.27116927 5.84629652 33.56302858 5.74271735 30.83203125 5.68359375 C30.03721848 5.66281265 29.2424057 5.64203156 28.42350769 5.62062073 C25.88659237 5.55527913 23.34957427 5.49631192 20.8125 5.4375 C19.09178628 5.39430014 17.37108292 5.35068537 15.65039062 5.30664062 C11.43369887 5.19961352 7.2169038 5.09830276 3 5 C3 5.66 3 6.32 3 7 C1.68 6.67 0.36 6.34 -1 6 C-1.625 4.125 -1.625 4.125 -2 2 C-1.34 1.34 -0.68 0.68 0 0 Z " fill="#FE5525" transform="translate(8,45)"/>
</svg>
